<?xml version="1.0" encoding="utf-8"?>
<!-- Generator: Adobe Illustrator 22.0.1, SVG Export Plug-In . SVG Version: 6.00 Build 0)  -->
<svg version="1.1" id="Layer_1" xmlns="http://www.w3.org/2000/svg" xmlns:xlink="http://www.w3.org/1999/xlink" x="0px" y="0px"
	 viewBox="0 0 36 36" style="enable-background:new 0 0 36 36;" xml:space="preserve">
<style type="text/css">
	.st0{fill:#FFD900;}
</style>
<path class="st0" d="M0,0v36h36V0H0z M12.8,27.1c-5.1,0-9.1-4-9.1-9.1s4-9.1,9.1-9.1c2.5,0,4.6,0.9,6.1,2.5l-2.5,2.3
	c-0.7-0.7-1.8-1.4-3.6-1.4c-3.1,0-5.6,2.6-5.6,5.7s2.5,5.7,5.6,5.7c3.6,0,4.9-2.6,5.2-3.9h-5.2v-3.1h8.6c0.1,0.5,0.1,0.9,0.1,1.6
	C21.5,23.5,18,27.1,12.8,27.1z M32.3,19.3h-2.6v2.6h-2.6v-2.6h-2.6v-2.6h2.6v-2.6h2.6v2.6h2.6V19.3z"/>
</svg>
