<?xml version="1.0" encoding="utf-8"?>
<!-- Generator: Adobe Illustrator 22.0.1, SVG Export Plug-In . SVG Version: 6.00 Build 0)  -->
<svg version="1.1" id="Layer_1" xmlns="http://www.w3.org/2000/svg" xmlns:xlink="http://www.w3.org/1999/xlink" x="0px" y="0px"
	 viewBox="0 0 491.6 491.3" style="enable-background:new 0 0 491.6 491.3;" xml:space="preserve">
<style type="text/css">
	.st0{fill:none;stroke:#000000;stroke-width:8;stroke-linecap:round;stroke-miterlimit:10;}
</style>
<g>
	<g>
		<path class="st0" d="M30.5,135.7c-24,47-33,102.1-21.7,157.8"/>
		<path class="st0" d="M352.1,28.7C305.9,6,252.2-2.1,198,8.8C136.3,21.2,84.9,56.1,50.5,103.2"/>
		<path class="st0" d="M482.7,198c-12.8-63.2-49.1-115.7-98.1-150"/>
	</g>
</g>
<g>
	<g>
		<path class="st0" d="M487.6,250.6c0.3-17.3-1.2-35-4.8-52.7"/>
		<path class="st0" d="M8.9,293.5c0.7,3.5,1.5,6.9,2.3,10.3"/>
	</g>
</g>
<path class="st0" d="M183.3,479.3c54.1-61.6,79.9-146.9,62.5-233.5"/>
<path class="st0" d="M204.5,387.2c-11.8,30.3-29.7,58-52.4,81.3"/>
<path class="st0" d="M217.2,485.8c52.5-67.1,76.4-155.9,58.2-246l0.1,0c-3.3-16.4-19.3-27.1-35.8-23.8
	c-16.4,3.3-27.1,19.3-23.8,35.8l0.2,0c6.8,33.6,6.2,66.9-0.5,98.4"/>
<path class="st0" d="M188.9,271.3c9.5,69.9-16.6,137.4-65.3,183"/>
<path class="st0" d="M311.7,298.9c-0.1-21.5-2.2-43.3-6.6-65.1l0.1,0c-6.6-32.8-38.5-54-71.3-47.4c-24.5,4.9-42.5,24-47.3,47"/>
<path class="st0" d="M253.5,487.3c30.2-44.2,49.9-95.6,56.1-150.1"/>
<path class="st0" d="M252.8,155.2c-8.2-0.6-16.6-0.2-25,1.5c-49.1,9.9-80.9,57.8-71,106.9l0.2,0c13.4,66.5-11.4,131.7-59.2,173.2"/>
<path class="st0" d="M292,482.9c43.5-74.2,61-164.1,42.7-255.1l0,0c-5.5-27.1-22.4-48.9-44.8-61.4"/>
<path class="st0" d="M120.1,354.1c-9.4,24.3-25.1,45.9-45.3,62.5"/>
<path class="st0" d="M366.9,363.2c7.5-45.6,7-93.4-2.6-141.4l0,0c-13.2-65.5-77-107.8-142.4-94.6c-65.5,13.2-107.9,77-94.6,142.5
	l0.1,0c3.1,15.6,3.8,31,2.2,46"/>
<path class="st0" d="M332.4,471.4c11-22.5,19.8-46.1,26.3-70.5"/>
<path class="st0" d="M368,156.8c12.4,17.1,21.5,37,25.9,59.1l0,0c16.4,81.5,8.2,162.2-19.4,234.5"/>
<path class="st0" d="M182.6,108.4c10.4-4.8,21.5-8.4,33.2-10.8c46.3-9.3,91.8,3.5,125.7,31.3"/>
<path class="st0" d="M54.8,393.9c34.1-27.4,52.2-72.5,42.9-118.4l-0.1,0c-11.5-57,10.7-113,53-147.3"/>
<path class="st0" d="M64.5,252.9c0.4,9.5,1.5,19.1,3.5,28.7l0.1,0c6.8,33.6-6,66.6-30.4,87.3"/>
<path class="st0" d="M427.6,233.4c-1.2-7.8-2.5-15.6-4.1-23.5l0,0C403.7,111.7,308.1,48.2,209.9,68C134.5,83.2,79.5,143.2,67,214.7"
	/>
<path class="st0" d="M417.3,416c12.3-46.2,17.5-94.9,14.3-144.6"/>
<path class="st0" d="M274.1,36.1c-22.7-3.1-46.4-2.5-70.1,2.3C89.4,61.5,15.3,173,38.4,287.5l0.1,0c4,19.9-2.2,39.4-15,53.2"/>
<path class="st0" d="M459.1,359.3c6.3-50.5,4.7-102.8-5.9-155.4l-0.1,0c-15.7-77.9-72.3-137.1-142.9-159.7"/>
</svg>
