<svg id="Слой_1" data-name="Слой 1" xmlns="http://www.w3.org/2000/svg" viewBox="0 0 195.71 62"><defs><style>.cls-1{fill:none;stroke:#000;stroke-linecap:round;stroke-miterlimit:10;stroke-width:2px;}</style></defs><title>logo</title><path class="cls-1" d="M4.29,17.35A29.88,29.88,0,0,0,1.6,36.94"/><path class="cls-1" d="M44.19,4.07A30,30,0,0,0,6.77,13.32"/><path class="cls-1" d="M60.39,25.08A29.91,29.91,0,0,0,48.22,6.46"/><path class="cls-1" d="M61,31.61a30.51,30.51,0,0,0-.6-6.54"/><path class="cls-1" d="M1.61,36.94c.09.43.19.86.29,1.28"/><path class="cls-1" d="M23.25,60A33.78,33.78,0,0,0,31,31"/><path class="cls-1" d="M25.88,48.57a30.5,30.5,0,0,1-6.5,10.1"/><path class="cls-1" d="M27.45,60.81a37.42,37.42,0,0,0,7.22-30.54h0a3.77,3.77,0,1,0-7.39,1.49h0A30.09,30.09,0,0,1,27.25,44"/><path class="cls-1" d="M23.94,34.18a26.28,26.28,0,0,1-8.1,22.72"/><path class="cls-1" d="M39.17,37.61a42.09,42.09,0,0,0-.81-8.08h0a7.5,7.5,0,0,0-14.71-.05"/><path class="cls-1" d="M32,61a41.33,41.33,0,0,0,6.95-18.63"/><path class="cls-1" d="M31.87,19.77a11.61,11.61,0,0,0-3.1.19A11.27,11.27,0,0,0,20,33.23h0a22.53,22.53,0,0,1-7.34,21.5"/><path class="cls-1" d="M36.73,60.45A44.92,44.92,0,0,0,42,28.78h0a11.25,11.25,0,0,0-5.56-7.62"/><path class="cls-1" d="M15.41,44.46a19,19,0,0,1-5.62,7.76"/><path class="cls-1" d="M46,45.59A49,49,0,0,0,45.7,28h0a15,15,0,1,0-29.4,6h0a19,19,0,0,1,.28,5.71"/><path class="cls-1" d="M41.74,59A48.28,48.28,0,0,0,45,50.27"/><path class="cls-1" d="M46.16,20a18.52,18.52,0,0,1,3.21,7.34h0A52.41,52.41,0,0,1,47,56.42"/><path class="cls-1" d="M23.16,14a18.74,18.74,0,0,1,19.71,2.55"/><path class="cls-1" d="M7.31,49.4a15,15,0,0,0,5.32-14.69h0a18.74,18.74,0,0,1,6.57-18.29"/><path class="cls-1" d="M8.51,31.9a22.9,22.9,0,0,0,.43,3.56H9A11.31,11.31,0,0,1,5.19,46.3"/><path class="cls-1" d="M53.55,29.48c-.15-1-.31-1.94-.51-2.92h0a22.5,22.5,0,0,0-44.22.6"/><path class="cls-1" d="M52.27,52.15A55.61,55.61,0,0,0,54.05,34.2"/><path class="cls-1" d="M34.51,5a25.8,25.8,0,0,0-8.7.28A26.26,26.26,0,0,0,5.27,36.2h0a7.48,7.48,0,0,1-1.86,6.6"/><path class="cls-1" d="M57.46,45.11a60.14,60.14,0,0,0-.73-19.29h0A26.25,26.25,0,0,0,39,6"/><path d="M84.76,17.23v4.68H88v3.73H84.76v9.49a2.26,2.26,0,0,0,.4,1.51,2,2,0,0,0,1.55.46A8.25,8.25,0,0,0,88.2,37v3.85a10.56,10.56,0,0,1-3.07.45c-3.57,0-5.38-1.8-5.45-5.39V25.64H76.9V21.91h2.78V17.23Z"/><path d="M90.8,17a2.5,2.5,0,0,1,.77-1.88,2.87,2.87,0,0,1,2.08-.74,2.91,2.91,0,0,1,2.08.74,2.69,2.69,0,0,1,0,3.78,3.25,3.25,0,0,1-4.13,0A2.51,2.51,0,0,1,90.8,17Zm5.4,23.94H91.1v-19h5.1Z"/><path d="M105.06,21.91l.16,2.2a6.64,6.64,0,0,1,5.47-2.55,5.54,5.54,0,0,1,4.5,1.77,8.38,8.38,0,0,1,1.51,5.31V40.93h-5.08V28.77a3.3,3.3,0,0,0-.71-2.35,3.1,3.1,0,0,0-2.33-.73,3.49,3.49,0,0,0-3.22,1.83V40.93h-5.08v-19Z"/><path d="M127.65,33.74l3.51-11.83h5.45l-7.64,22-.43,1a5.79,5.79,0,0,1-5.62,3.72,8.06,8.06,0,0,1-2.25-.33V44.43l.77,0A4.25,4.25,0,0,0,123.6,44a2.94,2.94,0,0,0,1.11-1.46l.6-1.57-6.66-19.07h5.47Z"/><path d="M137.83,31.25a11.26,11.26,0,0,1,1.09-5.05,8,8,0,0,1,3.13-3.43,9.16,9.16,0,0,1,4.76-1.21,8.62,8.62,0,0,1,6.28,2.36,9.42,9.42,0,0,1,2.72,6.39l0,1.3a10,10,0,0,1-2.44,7,9.48,9.48,0,0,1-13.12,0,10.1,10.1,0,0,1-2.45-7.18Zm5.08.36a7.11,7.11,0,0,0,1,4.14,3.35,3.35,0,0,0,2.91,1.44,3.4,3.4,0,0,0,2.89-1.42,7.81,7.81,0,0,0,1-4.53,7,7,0,0,0-1-4.12,3.36,3.36,0,0,0-2.92-1.46,3.31,3.31,0,0,0-2.88,1.45A7.92,7.92,0,0,0,142.91,31.61Z"/><path d="M163.65,21.91l.16,2.2a6.63,6.63,0,0,1,5.46-2.55,5.52,5.52,0,0,1,4.5,1.77,8.32,8.32,0,0,1,1.52,5.31V40.93h-5.08V28.77a3.3,3.3,0,0,0-.71-2.35,3.14,3.14,0,0,0-2.34-.73A3.48,3.48,0,0,0,164,27.52V40.93h-5.08v-19Z"/><path d="M187.89,41.28a9.33,9.33,0,0,1-6.81-2.56,9.15,9.15,0,0,1-2.63-6.84v-.49a11.51,11.51,0,0,1,1.11-5.13,8.14,8.14,0,0,1,3.13-3.48,8.88,8.88,0,0,1,4.64-1.22A7.88,7.88,0,0,1,193.47,24q2.24,2.46,2.24,7v2.07H183.6a4.71,4.71,0,0,0,1.48,3,4.52,4.52,0,0,0,3.14,1.13,5.48,5.48,0,0,0,4.59-2.13l2.5,2.79a7.76,7.76,0,0,1-3.1,2.53A10.19,10.19,0,0,1,187.89,41.28Zm-.58-15.62a3.16,3.16,0,0,0-2.45,1,5.31,5.31,0,0,0-1.21,2.93h7.07V29.2a3.75,3.75,0,0,0-.92-2.62A3.24,3.24,0,0,0,187.31,25.66Z"/></svg>