<?xml version="1.0" encoding="utf-8"?>
<!-- Generator: Adobe Illustrator 22.0.1, SVG Export Plug-In . SVG Version: 6.00 Build 0)  -->
<svg version="1.1" id="Слой_1" focusable="false"
	 xmlns="http://www.w3.org/2000/svg" xmlns:xlink="http://www.w3.org/1999/xlink" x="0px" y="0px" viewBox="0 0 36 36"
	 style="enable-background:new 0 0 36 36;" xml:space="preserve">
<style type="text/css">
	.st0{fill:#FFD900;}
</style>
<g>
	<path class="st0" d="M29.3,36H6.8C3,36,0,33,0,29.3V6.8C0,3,3,0,6.8,0h22.5C33,0,36,3,36,6.8v22.5C36,33,33,36,29.3,36z"/>
	<path d="M19.2,3.3C12.7,3.3,6.3,7.8,6.3,15c0,4.6,2.5,7.2,4,7.2c0.6,0,1-1.8,1-2.3c0-0.6-1.5-1.9-1.5-4.4c0-5.3,3.9-9,8.9-9
		c4.3,0,7.5,2.5,7.5,7.2c0,3.5-1.3,10-5.7,10c-1.6,0-2.9-1.2-2.9-2.9c0-2.5,1.7-4.9,1.7-7.4c0-4.3-5.9-3.6-5.9,1.7
		c0,1.1,0.1,2.3,0.6,3.3c-0.9,3.9-2.7,9.7-2.7,13.7c0,1.2,0.2,2.5,0.3,3.7c0.2,0.2,0.1,0.2,0.4,0.1c3.2-4.5,3.1-5.4,4.5-11.3
		c0.8,1.5,2.8,2.4,4.4,2.4c6.7,0,9.7-6.8,9.7-12.9C30.6,7.5,25.1,3.3,19.2,3.3z"/>
</g>
</svg>
